<svg xmlns="http://www.w3.org/2000/svg" xmlns:xlink="http://www.w3.org/1999/xlink" width="500" zoomAndPan="magnify" viewBox="0 0 375 374.999991" height="500" preserveAspectRatio="xMidYMid meet" version="1.0"><path fill="#000000" d="M 137.789062 130.464844 C 137.160156 130.464844 136.542969 130.300781 135.988281 129.988281 L 118.800781 120.0625 C 118.332031 119.789062 117.90625 119.4375 117.597656 118.996094 C 116.675781 117.667969 116.761719 115.984375 117.664062 114.785156 C 123.5625 106.921875 130.84375 100.460938 139.300781 95.582031 L 146.890625 91.199219 C 147.683594 90.738281 148.59375 90.496094 149.515625 90.496094 C 150.433594 90.496094 151.339844 90.738281 152.136719 91.199219 L 173.125 103.640625 C 174.464844 104.4375 174.445312 106.375 173.101562 107.152344 L 152.738281 118.851562 C 148.058594 121.554688 143.929688 125.046875 140.46875 129.230469 C 139.820312 130.011719 138.839844 130.464844 137.789062 130.464844 Z M 137.789062 130.464844 " fill-opacity="1" fill-rule="nonzero"/><path fill="#000000" d="M 129.351562 185.148438 C 129.25 185.148438 129.144531 185.117188 129.050781 185.0625 L 105.722656 171.601562 C 104.105469 170.667969 103.097656 168.925781 103.097656 167.058594 L 103.097656 158.296875 C 103.097656 148.53125 105.058594 138.996094 108.914062 129.957031 C 109.476562 128.628906 110.773438 127.773438 112.210938 127.773438 C 112.835938 127.773438 113.433594 127.9375 113.984375 128.253906 L 131.242188 138.21875 C 132.753906 139.089844 133.417969 140.886719 132.824219 142.480469 C 130.933594 147.570312 129.976562 152.886719 129.976562 158.296875 L 129.976562 184.535156 C 129.972656 184.953125 129.601562 185.148438 129.351562 185.148438 Z M 129.351562 185.148438 " fill-opacity="1" fill-rule="nonzero"/><path fill="#000000" d="M 143.972656 192.851562 C 143.035156 192.851562 142.105469 192.605469 141.289062 192.132812 C 140.433594 191.640625 139.90625 190.71875 139.90625 189.738281 L 139.90625 160.660156 C 139.90625 153.71875 141.75 146.855469 145.242188 140.8125 C 148.730469 134.769531 153.75 129.738281 159.765625 126.265625 L 183.992188 112.28125 C 184.871094 111.714844 186.546875 111.40625 187.804688 111.875 C 189.441406 112.480469 190.394531 114.460938 190.394531 116.378906 L 190.394531 141.109375 C 190.394531 143.0625 189.34375 144.875 187.65625 145.851562 C 187.429688 145.976562 181.835938 149.160156 179.378906 150.628906 C 178.296875 151.277344 174.621094 153.632812 172.753906 156.847656 C 171.445312 159.101562 170.808594 162.066406 170.808594 165.898438 L 170.808594 175.019531 C 170.808594 176.972656 169.761719 178.785156 168.070312 179.761719 L 146.648438 192.125 C 145.839844 192.605469 144.914062 192.851562 143.972656 192.851562 Z M 143.972656 192.851562 " fill-opacity="1" fill-rule="nonzero"/><path fill="#000000" d="M 313.988281 130.285156 C 312.921875 130.285156 311.914062 129.8125 311.230469 128.988281 C 307.78125 124.828125 303.664062 121.359375 299.007812 118.667969 L 278.53125 106.847656 C 276.828125 105.867188 275.652344 104.101562 275.390625 102.132812 C 274.222656 93.324219 272.78125 86.972656 270.71875 81.554688 C 270.203125 79.226562 271.015625 77.699219 273.210938 76.875 C 273.980469 76.582031 274.859375 76.4375 275.816406 76.4375 C 278.300781 76.4375 281.300781 77.414062 284.503906 79.261719 L 312.441406 95.390625 C 320.898438 100.277344 328.179688 106.734375 334.074219 114.597656 C 334.695312 115.414062 334.929688 116.464844 334.726562 117.46875 C 334.519531 118.480469 333.914062 119.324219 333.015625 119.839844 L 315.75 129.804688 C 315.21875 130.121094 314.605469 130.285156 313.988281 130.285156 Z M 313.988281 130.285156 " fill-opacity="1" fill-rule="nonzero"/><path fill="#000000" d="M 233.625 318.203125 C 231.65625 318.203125 230.054688 316.605469 230.054688 314.640625 L 230.054688 294.707031 C 230.054688 292.96875 231.304688 291.488281 233.03125 291.199219 C 238.488281 290.277344 243.265625 288.550781 248.078125 285.773438 L 299.007812 256.367188 C 305.902344 252.390625 311.660156 246.621094 315.660156 239.6875 C 319.660156 232.75 321.777344 224.882812 321.777344 216.925781 L 321.777344 158.113281 C 321.777344 152.738281 320.824219 147.4375 318.953125 142.371094 C 318.347656 140.726562 318.996094 138.902344 320.503906 138.035156 L 337.769531 128.070312 C 338.320312 127.757812 338.914062 127.59375 339.542969 127.59375 C 340.980469 127.59375 342.277344 128.445312 342.839844 129.773438 C 346.695312 138.8125 348.65625 148.347656 348.65625 158.113281 L 348.65625 216.925781 C 348.65625 229.574219 345.289062 242.09375 338.925781 253.121094 C 332.5625 264.144531 323.40625 273.316406 312.449219 279.640625 L 261.515625 309.042969 C 253.0625 313.929688 243.824219 317.003906 234.070312 318.179688 C 233.917969 318.191406 233.773438 318.203125 233.625 318.203125 Z M 233.625 318.203125 " fill-opacity="1" fill-rule="nonzero"/><path fill="#000000" d="M 306.753906 228.503906 C 306.132812 228.503906 305.511719 228.332031 304.96875 228.015625 L 282.757812 215.195312 C 276.519531 211.597656 276.621094 204.753906 276.660156 202.503906 L 276.664062 202.109375 C 276.671875 195.53125 276.566406 172.085938 276.472656 151.402344 C 276.398438 135.78125 276.335938 122.292969 276.335938 118.667969 C 276.335938 118.335938 276.488281 118.117188 276.617188 117.996094 C 276.796875 117.828125 277.042969 117.722656 277.285156 117.722656 C 277.445312 117.722656 277.605469 117.765625 277.75 117.855469 L 291.996094 126.082031 C 304.246094 133.15625 311.855469 146.335938 311.855469 160.476562 L 311.855469 214.546875 C 311.855469 218.433594 311.277344 222.300781 310.136719 226.035156 C 309.691406 227.515625 308.324219 228.503906 306.753906 228.503906 Z M 306.753906 228.503906 " fill-opacity="1" fill-rule="nonzero"/><path fill="#000000" d="M 215.515625 318.121094 C 215.367188 318.121094 215.222656 318.113281 215.070312 318.09375 C 205.3125 316.917969 196.082031 313.839844 187.625 308.960938 L 158.21875 291.980469 C 153.605469 289.320312 150.539062 286.464844 149.585938 283.957031 C 149.136719 282.765625 149.1875 281.355469 149.707031 280.445312 C 149.988281 279.964844 150.363281 279.6875 150.859375 279.609375 C 156.332031 278.695312 159.941406 278.003906 170.355469 274.4375 C 172.101562 273.839844 173.886719 273.535156 175.65625 273.535156 C 179.332031 273.535156 182.273438 274.808594 184.085938 275.882812 L 201.0625 285.683594 C 205.71875 288.367188 210.78125 290.199219 216.109375 291.109375 C 217.835938 291.40625 219.085938 292.878906 219.085938 294.617188 L 219.085938 314.550781 C 219.085938 315.507812 218.707031 316.402344 218.03125 317.078125 C 217.351562 317.75 216.460938 318.121094 215.515625 318.121094 Z M 215.515625 318.121094 " fill-opacity="1" fill-rule="nonzero"/><path fill="#000000" d="M 225.511719 280.585938 C 218.175781 280.585938 211.3125 278.773438 206.675781 275.621094 C 203.167969 273.230469 199.425781 269.929688 199.425781 260.867188 L 198.964844 239.933594 C 198.964844 237.65625 201.027344 237.589844 201.261719 237.589844 C 201.664062 237.589844 202.046875 237.679688 202.359375 237.84375 L 219.4375 247.699219 C 221.351562 248.808594 223.417969 249.367188 225.570312 249.367188 C 227.867188 249.367188 230.175781 248.71875 232.4375 247.4375 C 239.332031 243.542969 249.597656 237.570312 259.527344 231.804688 C 263.886719 229.273438 268.140625 226.800781 271.960938 224.59375 C 273.363281 223.785156 274.957031 223.355469 276.566406 223.355469 C 278.179688 223.355469 279.773438 223.78125 281.167969 224.585938 L 300.621094 235.820312 C 301.578125 236.371094 302.214844 237.308594 302.378906 238.40625 C 302.535156 239.46875 302.214844 240.515625 301.488281 241.292969 C 298.820312 244.140625 295.757812 246.578125 292.394531 248.519531 L 245.570312 275.554688 C 239.941406 278.796875 232.820312 280.585938 225.511719 280.585938 Z M 225.511719 280.585938 " fill-opacity="1" fill-rule="nonzero"/><path fill="#000000" d="M 137.742188 244.875 C 138.058594 245.421875 138.222656 246.039062 138.222656 246.675781 L 138.222656 266.523438 C 138.222656 267.0625 138.128906 267.605469 137.898438 268.097656 C 137.207031 269.558594 135.707031 270.328125 134.214844 270.148438 C 124.460938 268.96875 115.222656 265.898438 106.765625 261.011719 L 99.175781 256.628906 C 98.382812 256.167969 97.714844 255.507812 97.253906 254.707031 C 96.792969 253.90625 96.550781 253.003906 96.550781 252.082031 L 96.835938 227.683594 C 96.855469 226.125 98.539062 225.167969 99.886719 225.949219 L 120.199219 237.734375 C 124.878906 240.4375 129.964844 242.261719 135.316406 243.171875 C 136.335938 243.347656 137.21875 243.964844 137.742188 244.875 Z M 137.742188 244.875 " fill-opacity="1" fill-rule="nonzero"/><path fill="#000000" d="M 189.316406 224.847656 C 189.371094 224.9375 189.394531 225.042969 189.394531 225.15625 L 189.394531 252.089844 C 189.394531 253.957031 188.386719 255.695312 186.769531 256.636719 L 179.179688 261.019531 C 170.722656 265.902344 161.484375 268.976562 151.734375 270.152344 C 150.300781 270.324219 148.914062 269.632812 148.191406 268.390625 C 147.878906 267.84375 147.71875 267.25 147.71875 266.613281 L 147.71875 246.679688 C 147.71875 244.9375 148.9375 243.46875 150.625 243.183594 C 155.976562 242.28125 161.0625 240.449219 165.742188 237.746094 L 188.464844 224.621094 C 188.835938 224.40625 189.195312 224.628906 189.316406 224.847656 Z M 189.316406 224.847656 " fill-opacity="1" fill-rule="nonzero"/><path fill="#000000" d="M 188.679688 208.328125 C 189.152344 209.148438 189.398438 210.074219 189.398438 211.015625 C 189.398438 212.003906 188.871094 212.917969 188.019531 213.410156 L 162.835938 227.945312 C 156.832031 231.410156 149.960938 233.25 142.980469 233.25 C 135.996094 233.25 129.128906 231.410156 123.121094 227.945312 L 98.890625 213.953125 C 97.964844 213.476562 96.863281 212.179688 96.636719 210.851562 C 96.339844 209.128906 97.582031 207.308594 99.242188 206.351562 L 120.664062 193.988281 C 122.355469 193.011719 124.453125 193.011719 126.140625 193.988281 C 126.363281 194.121094 131.917969 197.371094 134.414062 198.761719 C 135.515625 199.375 139.398438 201.382812 143.113281 201.386719 C 145.71875 201.394531 148.605469 200.460938 151.925781 198.546875 L 159.832031 193.980469 C 161.523438 193.003906 163.621094 193.003906 165.304688 193.980469 L 186.726562 206.347656 C 187.527344 206.835938 188.207031 207.515625 188.679688 208.328125 Z M 188.679688 208.328125 " fill-opacity="1" fill-rule="nonzero"/><path fill="#000000" d="M 49.484375 92.375 C 50.015625 93.300781 50.105469 94.402344 49.738281 95.410156 C 47.863281 100.476562 46.914062 105.777344 46.914062 111.152344 L 46.914062 134.800781 C 46.914062 136.769531 45.972656 138.660156 44.398438 139.875 C 37.351562 145.285156 32.570312 149.710938 28.910156 154.210938 C 27.15625 155.820312 25.421875 155.882812 23.609375 154.390625 C 22.976562 153.871094 22.410156 153.183594 21.933594 152.355469 C 20.691406 150.203125 20.035156 147.109375 20.035156 143.417969 L 20.035156 111.152344 C 20.035156 101.386719 21.992188 91.851562 25.847656 82.8125 C 26.25 81.867188 27.042969 81.140625 28.011719 80.820312 C 28.992188 80.492188 30.023438 80.59375 30.921875 81.109375 L 48.1875 91.078125 C 48.726562 91.390625 49.171875 91.839844 49.484375 92.375 Z M 49.484375 92.375 " fill-opacity="1" fill-rule="nonzero"/><path fill="#000000" d="M 252.40625 68.015625 C 253.386719 69.722656 252.804688 71.910156 251.101562 72.890625 L 233.839844 82.855469 C 232.328125 83.730469 230.425781 83.382812 229.3125 82.03125 C 225.78125 77.769531 221.902344 74.492188 217.089844 71.714844 L 166.160156 42.308594 C 159.265625 38.328125 151.394531 36.222656 143.386719 36.222656 C 135.382812 36.222656 127.507812 38.328125 120.617188 42.308594 L 69.6875 71.714844 C 65.03125 74.40625 60.921875 77.875 57.464844 82.03125 C 56.34375 83.378906 54.441406 83.722656 52.9375 82.855469 L 35.679688 72.890625 C 35.128906 72.574219 34.691406 72.140625 34.375 71.59375 C 33.65625 70.351562 33.753906 68.800781 34.621094 67.648438 C 40.515625 59.785156 47.796875 53.324219 56.253906 48.445312 L 107.183594 19.039062 C 118.144531 12.710938 130.660156 9.371094 143.390625 9.371094 C 156.121094 9.371094 168.644531 12.714844 179.597656 19.039062 L 230.527344 48.445312 C 238.984375 53.324219 246.265625 59.785156 252.164062 67.648438 C 252.253906 67.769531 252.332031 67.890625 252.40625 68.015625 Z M 252.40625 68.015625 " fill-opacity="1" fill-rule="nonzero"/><path fill="#000000" d="M 138.160156 49.535156 C 138.46875 50.074219 138.640625 50.691406 138.640625 51.324219 L 138.640625 76.96875 C 138.640625 84.171875 132.664062 87.507812 130.699219 88.597656 L 130.359375 88.792969 C 124.660156 92.070312 104.410156 103.890625 86.539062 114.3125 C 73.042969 122.183594 61.394531 128.980469 58.253906 130.792969 C 57.964844 130.957031 57.703125 130.933594 57.53125 130.882812 C 57.296875 130.816406 57.085938 130.652344 56.964844 130.449219 C 56.882812 130.308594 56.839844 130.152344 56.839844 129.976562 L 56.839844 113.523438 C 56.839844 99.382812 64.449219 86.195312 76.699219 79.128906 L 123.519531 52.09375 C 126.886719 50.148438 130.523438 48.71875 134.328125 47.832031 C 135.839844 47.484375 137.378906 48.171875 138.160156 49.535156 Z M 138.160156 49.535156 " fill-opacity="1" fill-rule="nonzero"/><path fill="#000000" d="M 261.394531 83.742188 C 261.46875 83.867188 261.535156 83.996094 261.59375 84.136719 C 265.449219 93.171875 267.410156 102.707031 267.410156 112.472656 L 267.410156 146.433594 C 267.410156 151.761719 266.476562 155.839844 264.773438 157.917969 C 263.964844 158.902344 262.722656 159.566406 261.675781 159.566406 C 261.121094 159.566406 260.691406 159.378906 260.371094 158.992188 C 256.835938 154.710938 254.4375 151.9375 246.148438 144.691406 C 244.757812 143.472656 243.605469 142.085938 242.71875 140.550781 C 240.882812 137.371094 240.519531 134.1875 240.539062 132.078125 L 240.539062 112.472656 C 240.539062 107.097656 239.585938 101.800781 237.710938 96.730469 C 237.105469 95.089844 237.753906 93.265625 239.265625 92.398438 L 256.527344 82.433594 C 257.359375 81.953125 258.324219 81.824219 259.242188 82.082031 C 260.152344 82.335938 260.921875 82.921875 261.394531 83.742188 Z M 261.394531 83.742188 " fill-opacity="1" fill-rule="nonzero"/><path fill="#000000" d="M 223.890625 93.851562 C 227.558594 100.207031 229.417969 107.054688 229.007812 112.644531 C 228.691406 116.875 227.699219 121.765625 219.855469 126.300781 L 201.953125 137.164062 C 199.976562 138.304688 198.894531 136.550781 198.773438 136.351562 C 198.570312 136.007812 198.457031 135.628906 198.445312 135.273438 L 198.445312 115.558594 C 198.445312 113.347656 197.898438 111.273438 196.820312 109.414062 C 195.675781 107.425781 193.953125 105.75 191.714844 104.429688 C 184.890625 100.410156 174.589844 94.5 164.632812 88.785156 C 160.261719 86.277344 155.988281 83.828125 152.167969 81.625 C 150.769531 80.820312 149.605469 79.65625 148.792969 78.253906 C 147.988281 76.863281 147.5625 75.265625 147.5625 73.65625 L 147.5625 51.195312 C 147.5625 50.09375 148.058594 49.070312 148.925781 48.378906 C 149.761719 47.710938 150.835938 47.46875 151.867188 47.703125 C 155.667969 48.589844 159.304688 50.019531 162.675781 51.964844 L 209.5 79 C 215.125 82.246094 220.234375 87.519531 223.890625 93.851562 Z M 223.890625 93.851562 " fill-opacity="1" fill-rule="nonzero"/><path fill="#000000" d="M 237.128906 186.765625 C 237.445312 186.222656 237.898438 185.765625 238.445312 185.453125 L 255.636719 175.527344 C 256.105469 175.257812 256.625 175.066406 257.164062 175.019531 C 258.777344 174.886719 260.1875 175.800781 260.785156 177.183594 C 264.636719 186.222656 266.597656 195.757812 266.597656 205.523438 L 266.597656 214.289062 C 266.597656 215.207031 266.355469 216.113281 265.894531 216.914062 C 265.433594 217.710938 264.773438 218.375 263.972656 218.832031 L 242.699219 230.78125 C 241.34375 231.546875 239.671875 230.5625 239.675781 229.003906 L 239.726562 205.523438 C 239.726562 200.121094 238.765625 194.800781 236.875 189.707031 C 236.511719 188.75 236.609375 187.675781 237.128906 186.765625 Z M 237.128906 186.765625 " fill-opacity="1" fill-rule="nonzero"/><path fill="#000000" d="M 193.996094 152.117188 C 194.050781 152.027344 194.121094 151.953125 194.21875 151.898438 L 217.542969 138.429688 C 219.164062 137.496094 221.175781 137.496094 222.789062 138.429688 L 230.378906 142.8125 C 238.832031 147.699219 246.113281 154.160156 252.011719 162.015625 C 252.878906 163.167969 252.96875 164.71875 252.253906 165.964844 C 251.9375 166.507812 251.503906 166.9375 250.953125 167.261719 L 233.695312 177.226562 C 232.183594 178.097656 230.300781 177.777344 229.214844 176.460938 C 225.753906 172.28125 221.625 168.789062 216.945312 166.085938 L 194.21875 152.960938 C 193.855469 152.753906 193.875 152.332031 193.996094 152.117188 Z M 193.996094 152.117188 " fill-opacity="1" fill-rule="nonzero"/><path fill="#000000" d="M 180.015625 160.933594 C 180.488281 160.113281 181.167969 159.433594 181.980469 158.96875 C 182.835938 158.476562 183.894531 158.476562 184.746094 158.96875 L 209.925781 173.503906 C 215.933594 176.972656 220.957031 182.003906 224.449219 188.050781 C 227.941406 194.097656 229.785156 200.964844 229.785156 207.898438 L 229.785156 235.875 C 229.832031 236.917969 229.261719 238.515625 228.226562 239.378906 C 226.878906 240.492188 224.6875 240.324219 223.03125 239.371094 L 201.609375 227.003906 C 199.917969 226.027344 198.867188 224.210938 198.867188 222.265625 C 198.867188 222.003906 198.910156 215.574219 198.867188 212.710938 C 198.851562 211.449219 198.644531 207.085938 196.796875 203.867188 C 195.5 201.605469 193.25 199.574219 189.925781 197.660156 L 182.023438 193.09375 C 180.332031 192.121094 179.28125 190.300781 179.28125 188.355469 L 179.28125 163.625 C 179.296875 162.671875 179.542969 161.746094 180.015625 160.933594 Z M 180.015625 160.933594 " fill-opacity="1" fill-rule="nonzero"/><path fill="#000000" d="M 149.191406 339.449219 C 149.726562 338.523438 150.640625 337.894531 151.695312 337.710938 C 157.023438 336.800781 162.085938 334.976562 166.742188 332.285156 L 187.21875 320.464844 C 188.921875 319.484375 191.035156 319.351562 192.867188 320.109375 C 201.082031 323.503906 207.300781 325.429688 213.023438 326.351562 C 215.296875 327.066406 216.210938 328.539062 215.828125 330.847656 C 215.695312 331.660156 215.378906 332.492188 214.902344 333.320312 C 213.660156 335.472656 211.3125 337.582031 208.113281 339.433594 L 180.175781 355.5625 C 171.71875 360.449219 162.480469 363.523438 152.726562 364.699219 C 151.707031 364.820312 150.683594 364.503906 149.914062 363.824219 C 149.136719 363.140625 148.714844 362.195312 148.714844 361.15625 L 148.714844 341.226562 C 148.71875 340.597656 148.882812 339.984375 149.191406 339.449219 Z M 149.191406 339.449219 " fill-opacity="1" fill-rule="nonzero"/><path fill="#000000" d="M 26.636719 175.890625 C 27.617188 174.1875 29.804688 173.601562 31.507812 174.582031 L 48.773438 184.546875 C 50.28125 185.421875 50.9375 187.238281 50.324219 188.882812 C 48.398438 194.066406 47.5 199.066406 47.5 204.625 L 47.5 263.4375 C 47.5 271.394531 49.617188 279.261719 53.617188 286.199219 C 57.617188 293.132812 63.375 298.898438 70.269531 302.875 L 121.199219 332.28125 C 125.855469 334.972656 130.917969 336.796875 136.246094 337.703125 C 137.972656 338 139.222656 339.476562 139.222656 341.214844 L 139.222656 361.144531 C 139.222656 361.78125 139.0625 362.375 138.75 362.921875 C 138.027344 364.164062 136.640625 364.863281 135.214844 364.6875 C 125.453125 363.503906 116.222656 360.429688 107.765625 355.550781 L 56.835938 326.144531 C 45.875 319.816406 36.722656 310.652344 30.359375 299.625 C 23.992188 288.597656 20.628906 276.085938 20.628906 263.4375 L 20.628906 204.625 C 20.628906 194.859375 22.585938 185.324219 26.441406 176.285156 C 26.496094 176.152344 26.5625 176.019531 26.636719 175.890625 Z M 26.636719 175.890625 " fill-opacity="1" fill-rule="nonzero"/><path fill="#000000" d="M 67.753906 284.078125 C 68.0625 283.535156 68.515625 283.082031 69.066406 282.765625 L 91.277344 269.945312 C 97.515625 266.347656 103.390625 269.855469 105.316406 271.007812 L 105.65625 271.207031 C 111.347656 274.503906 131.703125 286.132812 149.671875 296.394531 C 163.230469 304.140625 174.949219 310.832031 178.089844 312.644531 C 178.378906 312.808594 178.488281 313.050781 178.53125 313.226562 C 178.59375 313.46875 178.554688 313.730469 178.433594 313.9375 C 178.355469 314.074219 178.234375 314.191406 178.089844 314.277344 L 163.84375 322.503906 C 151.59375 329.574219 136.378906 329.574219 124.128906 322.503906 L 77.300781 295.464844 C 73.9375 293.519531 70.875 291.089844 68.207031 288.242188 C 67.140625 287.105469 66.964844 285.441406 67.753906 284.078125 Z M 67.753906 284.078125 " fill-opacity="1" fill-rule="nonzero"/><path fill="#000000" d="M 35.757812 160.246094 C 35.832031 160.121094 35.910156 160 36 159.878906 C 41.898438 152.015625 49.179688 145.554688 57.636719 140.671875 L 87.042969 123.695312 C 91.65625 121.035156 95.65625 119.804688 98.304688 120.234375 C 99.558594 120.441406 100.757812 121.183594 101.28125 122.089844 C 101.558594 122.566406 101.609375 123.027344 101.433594 123.5 C 99.484375 128.703125 98.285156 132.167969 96.164062 142.964844 C 95.808594 144.777344 95.175781 146.476562 94.292969 148.007812 C 92.453125 151.191406 89.878906 153.09375 88.046875 154.136719 L 71.070312 163.9375 C 66.414062 166.625 62.304688 170.097656 58.847656 174.253906 C 57.726562 175.601562 55.824219 175.945312 54.320312 175.082031 L 37.054688 165.113281 C 36.226562 164.636719 35.636719 163.859375 35.394531 162.9375 C 35.160156 162.023438 35.285156 161.066406 35.757812 160.246094 Z M 35.757812 160.246094 " fill-opacity="1" fill-rule="nonzero"/><path fill="#000000" d="M 63.265625 187.675781 C 66.933594 181.324219 71.933594 176.285156 76.984375 173.851562 C 80.804688 172.007812 85.539062 170.417969 93.386719 174.945312 L 111.742188 185.015625 C 113.71875 186.15625 112.742188 187.972656 112.628906 188.179688 C 112.429688 188.523438 112.160156 188.808594 111.859375 188.996094 L 94.78125 198.855469 C 92.867188 199.964844 91.34375 201.46875 90.273438 203.332031 C 89.125 205.320312 88.53125 207.648438 88.507812 210.246094 C 88.441406 218.160156 88.472656 230.035156 88.503906 241.523438 C 88.515625 246.558594 88.527344 251.488281 88.53125 255.894531 C 88.53125 257.515625 88.109375 259.101562 87.300781 260.503906 C 86.496094 261.898438 85.332031 263.066406 83.933594 263.871094 L 64.480469 275.105469 C 63.523438 275.65625 62.386719 275.742188 61.359375 275.335938 C 60.363281 274.941406 59.613281 274.136719 59.304688 273.121094 C 58.167969 269.390625 57.59375 265.519531 57.59375 261.636719 L 57.59375 207.566406 C 57.597656 201.066406 59.613281 194.003906 63.265625 187.675781 Z M 63.265625 187.675781 " fill-opacity="1" fill-rule="nonzero"/></svg>